<?xml version="1.0" encoding="utf-8"?>
<!-- Generator: Adobe Illustrator 22.0.1, SVG Export Plug-In . SVG Version: 6.00 Build 0)  -->
<svg version="1.1" id="Capa_2" xmlns="http://www.w3.org/2000/svg" xmlns:xlink="http://www.w3.org/1999/xlink" x="0px" y="0px"
	 viewBox="0 0 100 100" style="enable-background:new 0 0 100 100;" xml:space="preserve">
<style type="text/css">
	.st0{clip-path:url(#SVGID_2_);fill:#363636;}
</style>
<g>
	<defs>
		<rect id="SVGID_1_" y="23" width="100" height="49.6"/>
	</defs>
	<clipPath id="SVGID_2_">
		<use xlink:href="#SVGID_1_"  style="overflow:visible;"/>
	</clipPath>
	<path class="st0" d="M59,39.5h-0.7v-7.8H59h0h17.9l2.8,7.8H59z M43.7,31.7h11.2v7.8H36.1L43.7,31.7z M83.4,42.1
		c0.3-0.4,0.4-1,0.2-1.5l-3.9-10.7c0-0.1,0-0.1-0.1-0.2c-0.2-0.4-0.5-0.7-0.9-1c-0.4-0.2-0.8-0.4-1.3-0.4H59h0H43.3
		c-0.3,0-0.5,0-0.8,0.1c-0.2,0.1-0.5,0.2-0.7,0.4c-0.1,0-0.1,0.1-0.2,0.2L30.9,40c-0.5,0.5-0.6,1.2-0.3,1.8c0.3,0.6,0.9,1,1.5,1
		h24.5h0H59h0h23C82.6,42.8,83.1,42.5,83.4,42.1"/>
	<path class="st0" d="M90.6,50.2l-0.8-3.4l1.5-0.4l1,3.3L90.6,50.2z M84.1,65.3c-0.5,1.2-1.3,2.2-2.4,2.9c-1,0.7-2.3,1.1-3.6,1.1
		c-0.9,0-1.8-0.2-2.5-0.5c-1.2-0.5-2.2-1.3-2.9-2.4c-0.7-1-1.1-2.3-1.1-3.6c0-0.9,0.2-1.7,0.5-2.5c0.5-1.2,1.3-2.2,2.4-2.9
		c1-0.7,2.3-1.1,3.6-1.1c0.9,0,1.7,0.2,2.5,0.5c1.2,0.5,2.2,1.3,2.9,2.4c0.7,1,1.1,2.3,1.1,3.6C84.7,63.7,84.5,64.5,84.1,65.3
		 M17.4,60.3c0.5-1.2,1.3-2.2,2.4-2.9c1-0.7,2.3-1.1,3.6-1.1c0.9,0,1.8,0.2,2.5,0.5c1.2,0.5,2.2,1.3,2.9,2.4c0.7,1,1.1,2.3,1.1,3.6
		c0,0.9-0.2,1.7-0.5,2.5c-0.5,1.2-1.3,2.2-2.4,2.9c-1,0.7-2.3,1.1-3.6,1.1c-0.9,0-1.7-0.2-2.5-0.5c-1.2-0.5-2.2-1.3-2.9-2.4
		c-0.7-1-1.1-2.3-1.1-3.6C16.9,61.9,17.1,61,17.4,60.3 M0.3,62.1c0.3,0.7,0.8,1.3,1.4,1.7c0.3,0.2,0.6,0.4,1,0.5
		c0.4,0.1,0.7,0.2,1.1,0.2h9.9c0.1,0.8,0.3,1.5,0.6,2.2c0.8,1.8,2,3.3,3.6,4.3c1.6,1.1,3.5,1.7,5.5,1.7c1.4,0,2.7-0.3,3.8-0.8
		c1.8-0.7,3.3-2,4.3-3.6c0.8-1.1,1.3-2.4,1.5-3.8H38c0.9,0,1.7-0.7,1.7-1.7c0-0.9-0.7-1.7-1.7-1.7h-4.9c-0.1-0.8-0.3-1.5-0.6-2.2
		c-0.8-1.8-2-3.3-3.6-4.3c-1.6-1.1-3.5-1.7-5.5-1.7c-1.4,0-2.6,0.3-3.8,0.8c-1.8,0.8-3.3,2-4.3,3.6c-0.8,1.1-1.3,2.4-1.5,3.8H3.8
		c-0.1,0-0.1,0-0.2,0c-0.1,0-0.2-0.1-0.2-0.2c-0.1-0.1-0.1-0.2-0.1-0.2c0,0,0-0.1,0-0.1c0-0.1,0-0.1,0-0.2l0.2-1.5l2.1-0.1
		c0.9,0,1.6-0.8,1.6-1.7c0-0.9-0.8-1.6-1.7-1.6l-1.6,0l0.2-1.3h5.4c0.6,0,1.2-0.2,1.6-0.7l4-3.9c0.7-0.6,0.7-1.7,0-2.4
		c-0.6-0.7-1.7-0.7-2.4,0l-3.7,3.6H5.3l0.8-1.8c0.3-0.5,0.5-1,0.7-1.4c0.1-0.2,0.2-0.3,0.2-0.4c0-0.1,0-0.1,0.1-0.1
		c0.1-0.1,0.2-0.2,0.3-0.2l0,0l16.5-4.7c0.3-0.1,0.5-0.2,0.7-0.4l14.9-14.9c0.5-0.4,1.2-0.6,1.8-0.6h38.1c0.6,0,1.2,0.2,1.7,0.5
		c0.5,0.3,0.9,0.7,1.1,1.2l4,12.2c0,0.1,0,0.1,0.1,0.2c0.1,0.3,0.3,0.5,0.4,0.6c0.1,0.1,0.3,0.3,0.4,0.4c0.2,0.2,0.4,0.3,0.7,0.4
		c0.3,0.2,0.6,0.3,0.9,0.4c0.1,0.1,0.3,0.1,0.4,0.2c0.1,0,0.2,0.1,0.2,0.1l0.4,0.2c0.2,0.1,0.4,0.3,0.5,0.5l-1.6,0.4
		c-0.3,0.1-0.7,0.2-1,0.4c-0.4,0.3-0.8,0.7-1,1.1c-0.2,0.4-0.4,0.9-0.4,1.5c0,0.2,0,0.5,0.1,0.7l0.9,3.9v0c0.1,0.3,0.2,0.7,0.4,1
		c0.3,0.4,0.7,0.8,1.1,1c0.4,0.2,0.9,0.4,1.5,0.4c0.2,0,0.5,0,0.7-0.1h0l2.2-0.5c0,0,0,0.1,0,0.1c0,0.2,0.1,0.3,0.2,0.5
		c0.1,0.2,0.1,0.3,0.2,0.5c0.1,0.3,0.4,0.5,0.6,0.7c0.3,0.2,0.6,0.4,0.9,0.5l0,0l0.1,0c0.4,0.1,0.6,0.5,0.7,0.9l0.5,3.5
		c0,0.1,0,0.3,0,0.4c0,0.2,0,0.4-0.1,0.5c0,0.1-0.1,0.2-0.1,0.2c0,0.1-0.1,0.1-0.1,0.1c0,0-0.1,0-0.1,0c0,0-0.1,0-0.2,0h-8.2
		c-0.1-0.8-0.3-1.5-0.6-2.2c-0.7-1.8-2-3.3-3.6-4.3c-1.6-1.1-3.5-1.7-5.5-1.7c-1.4,0-2.6,0.3-3.8,0.8c-1.8,0.8-3.3,2-4.3,3.6
		c-0.8,1.1-1.3,2.4-1.5,3.8H49.2c-0.9,0-1.7,0.7-1.7,1.7c0,0.9,0.7,1.7,1.7,1.7h19.2c0.1,0.8,0.3,1.5,0.6,2.2c0.7,1.8,2,3.3,3.6,4.3
		c1.6,1.1,3.5,1.7,5.5,1.7c1.4,0,2.7-0.3,3.8-0.8c1.8-0.7,3.3-2,4.3-3.6c0.8-1.1,1.3-2.4,1.5-3.8h8.2c0.6,0,1.2-0.1,1.7-0.4
		c0.4-0.2,0.7-0.4,1-0.7c0.4-0.4,0.7-1,0.9-1.5c0.2-0.5,0.3-1.1,0.3-1.7c0-0.3,0-0.6-0.1-0.9l-0.5-3.5c-0.2-1.6-1.3-2.9-2.7-3.5
		c0,0,0-0.1,0-0.1c0-0.2-0.1-0.4-0.2-0.6l-0.3-1.1l-2-6.5l-0.5-1.5v0c-0.4-1.2-1.2-2.2-2.4-2.7l-0.4-0.2c-0.1,0-0.2-0.1-0.3-0.1
		c-0.2-0.1-0.3-0.1-0.5-0.2c-0.1-0.1-0.2-0.1-0.4-0.2c-0.1,0-0.2-0.1-0.2-0.1l-4-12c0-0.1,0-0.1-0.1-0.2c-0.5-1.1-1.4-2.1-2.4-2.7
		c-1-0.6-2.2-1-3.5-1H41.3c-1.4,0-2.8,0.5-3.9,1.3c-0.1,0-0.1,0.1-0.2,0.2L22.6,39.1L6.4,43.7c-1,0.3-1.9,1-2.4,1.9l0,0
		c0,0-0.4,0.9-1,2l0,0.1l-1.8,4.1c0,0,0,0,0,0c0,0,0,0.1,0,0.1c0,0,0,0,0,0.1c0,0,0,0.1,0,0.1c0,0,0,0.1,0,0.1c0,0,0,0,0,0l-0.7,4.2
		c0,0.1,0,0.2-0.1,0.3L0.1,60C0,60.2,0,60.4,0,60.7C0,61.2,0.1,61.7,0.3,62.1"/>
	<path class="st0" d="M96.4,51.6"/>
	<path class="st0" d="M90.8,39.5L90.8,39.5L90.8,39.5z"/>
	<path class="st0" d="M88.8,43.7L88.8,43.7L88.8,43.7z"/>
	<path class="st0" d="M77.6,47.4c0,0.9,0.7,1.7,1.7,1.7c0.9,0,1.7-0.7,1.7-1.7c0-0.9-0.7-1.7-1.7-1.7C78.3,45.7,77.6,46.5,77.6,47.4
		"/>
</g>
</svg>
