<?xml version="1.0" encoding="utf-8"?>
<!-- Generator: Adobe Illustrator 22.0.1, SVG Export Plug-In . SVG Version: 6.00 Build 0)  -->
<svg version="1.1" id="Capa_1" xmlns="http://www.w3.org/2000/svg" xmlns:xlink="http://www.w3.org/1999/xlink" x="0px" y="0px"
	 viewBox="0 0 100 100" style="enable-background:new 0 0 100 100;" xml:space="preserve">
<style type="text/css">
	.st0{clip-path:url(#SVGID_2_);fill:#444444;}
	.st1{clip-path:url(#SVGID_2_);fill:#FFFFFF;}
</style>
<g>
	<defs>
		<rect id="SVGID_1_" y="14.3" width="100" height="71.7"/>
	</defs>
	<clipPath id="SVGID_2_">
		<use xlink:href="#SVGID_1_"  style="overflow:visible;"/>
	</clipPath>
	<path class="st0" d="M91.9,86H8.1C3.6,86,0,82.4,0,77.9V22.3c0-4.4,3.6-8.1,8.1-8.1h83.9c4.4,0,8.1,3.6,8.1,8.1v55.6
		C100,82.4,96.4,86,91.9,86 M8.1,20.9c-0.8,0-1.4,0.7-1.4,1.4v55.6c0,0.8,0.7,1.4,1.4,1.4h83.9c0.8,0,1.4-0.7,1.4-1.4V22.3
		c0-0.8-0.7-1.4-1.4-1.4H8.1z"/>
	<path class="st1" d="M8.1,82.7c-2.6,0-3.2-1.5-1.3-3.3l39.8-38.2c1.9-1.8,5-1.8,6.9,0l39.8,38.2c1.9,1.8,1.3,3.3-1.3,3.3H8.1z"/>
	<path class="st0" d="M91.9,86H8.1c-3.8,0-5-2.1-5.4-3C2.3,82,1.7,79.6,4.4,77l39.8-38.2c3.2-3,8.3-3,11.4,0L95.6,77
		c2.7,2.6,2.2,5,1.8,5.9C97,83.9,95.7,86,91.9,86 M11.6,79.4h76.9L51.1,43.6c-0.6-0.6-1.7-0.6-2.3,0L11.6,79.4z"/>
	<path class="st1" d="M91.9,17.6c2.6,0,3.2,1.5,1.3,3.3L53.4,59c-1.9,1.8-5,1.8-6.9,0L6.7,20.9c-1.9-1.8-1.3-3.3,1.3-3.3H91.9z"/>
	<path class="st0" d="M50,63.7c-2.1,0-4.1-0.8-5.7-2.3L4.4,23.3c-2.7-2.6-2.2-5-1.8-5.9c0.4-0.9,1.6-3,5.4-3h83.9
		c3.8,0,5.1,2.1,5.4,3c0.4,0.9,0.9,3.3-1.8,5.9L55.7,61.4C54.1,62.9,52.1,63.7,50,63.7 M11.6,20.9l37.3,35.7c0.6,0.6,1.7,0.6,2.3,0
		l37.3-35.7H11.6z M92.3,20.9L92.3,20.9L92.3,20.9z"/>
</g>
</svg>
