<?xml version="1.0" encoding="utf-8"?>
<!-- Generator: Adobe Illustrator 22.0.1, SVG Export Plug-In . SVG Version: 6.00 Build 0)  -->
<svg version="1.1" id="Capa_1" xmlns="http://www.w3.org/2000/svg" xmlns:xlink="http://www.w3.org/1999/xlink" x="0px" y="0px"
	 viewBox="0 0 101.8 20.2" style="enable-background:new 0 0 101.8 20.2;" xml:space="preserve">
<style type="text/css">
	.st0{fill:#353635;}
	.st1{fill:#343534;}
</style>
<g>
	<g>
		<g>
			<path class="st0" d="M20.4,8.3l-3,0.6c0,0,0.3,1.3-0.8,2.5c-1.2,1.4-2.6,1.3-3.6,0.7c-1-0.5-1.5-1.7-1.7-2.1
				c2.2-2.2,1.9-4.4,0.7-6.5C10.7,1.3,8.3,1,8.3,1c-2,0.5-3.7,2-3.7,2l2,2.3c0,0,1-1,2.6-0.6c1.8,0.4,2.4,1.6,2.4,2.8
				c0,1.1-0.7,2.1-1,2.5c-3-0.8-4.8,0.5-6,2.6S4.3,17,4.3,17c1.5,1.5,3.5,2.2,3.5,2.2l1-2.9c0,0-1.3-0.4-1.8-1.9
				c-0.5-1.8,0.2-2.9,1.2-3.5c0.9-0.6,2.2-0.5,2.7-0.4c0.8,3,2.9,3.9,5.3,3.9c2.5,0,4-1.9,4-1.9C20.8,10.4,20.4,8.3,20.4,8.3"/>
			<path class="st0" d="M15.1,9.3c0,0,1.5-0.1,2.4-1.3c1.4-1.8,0.9-3.1,0.5-3.8s-1.4-1.4-1.4-1.4l-0.2-0.6l-0.5-1.5l-1.8,1l0.6,2
				C18.4,6,15.1,9.3,15.1,9.3"/>
			<path class="st0" d="M8.2,7c0,0-0.8-1.2-2.3-1.4C3.7,5.2,2.8,6.3,2.4,7C1.9,7.7,1.9,8.8,1.9,8.8L1.4,9.3l-1,1.1l1.8,1l1.5-1.5
				C3.7,5.8,8.2,7,8.2,7"/>
			<path class="st0" d="M14.5,16.5c-3.6,2-4.8-2.5-4.8-2.5S9,15.3,9.6,16.7c0.8,2.1,2.3,2.3,3,2.3c0.8,0,1.9-0.5,1.9-0.5l0.7,0.1
				l1.5,0.3v-2L14.5,16.5z"/>
			<path class="st0" d="M38.1,2L41,0.6v14.7c0,1.5,0.4,2.4,1.3,2.7c-0.4,0.8-1.2,1.3-2.3,1.3c-1.3,0-1.9-0.9-1.9-2.7V2z"/>
			<path class="st0" d="M46,11.7h6C51.8,9.9,50.8,9,49,9C47.4,9,46.4,9.9,46,11.7 M54.6,13.8h-8.7c0.1,1,0.4,1.7,1,2.3
				c0.6,0.5,1.4,0.8,2.5,0.8c0.4,0,0.5,0,1.1-0.1c0.5-0.1,1.1-0.4,1.8-0.2c0.4,0.1,0.6,0.5,0.8,0.8s0.4,0.6,0.4,0.6
				c-1,0.8-2.5,1.2-4.5,1.2c-1.9,0-3.3-0.5-4.4-1.6C43.5,16.5,43,15,43,13c0-1.9,0.6-3.5,1.8-4.7s2.6-1.8,4.3-1.8
				c1.8,0,3.2,0.5,4.3,1.6s1.6,2.4,1.6,4C54.8,12.6,54.8,13.1,54.6,13.8"/>
			<path class="st0" d="M27.2,11.7h6C33,9.9,32,9,30.2,9C28.6,9,27.6,9.9,27.2,11.7 M35.8,13.8h-8.7c0.1,1,0.4,1.7,1,2.3
				c0.6,0.5,1.4,0.8,2.5,0.8c0.4,0,0.5,0,1.1-0.1c0.5-0.1,1.1-0.4,1.8-0.2c0.4,0.1,0.6,0.5,0.8,0.8s0.4,0.6,0.4,0.6
				c-1,0.8-2.5,1.2-4.5,1.2c-1.9,0-3.3-0.5-4.4-1.6S24.2,15,24.2,13c0-1.9,0.6-3.5,1.8-4.7c1.2-1.2,2.6-1.8,4.3-1.8
				c1.8,0,3.2,0.5,4.3,1.6s1.6,2.4,1.6,4C36.1,12.6,36,13.1,35.8,13.8"/>
			<path class="st0" d="M65.2,19.1c0,0-0.6,0-1-0.5c-0.1-0.2-3.3-5-3.3-5L59.6,15v4.1h-2.9V2l2.9-1.3v10.9l4.1-4.7h3.4L63,11.5
				l5,7.6H65.2z"/>
			<path class="st0" d="M71,9.1h-3.5l2-2.3H71V4.4l2.9-1.1v3.5h3.4v2.3h-3.4v5.4c0,0.9,0.1,1.5,0.4,1.9s0.8,0.5,1.4,0.5
				c0.7,0,1.3-0.2,1.9-0.6V19c-0.7,0.2-1.6,0.3-2.8,0.3c-1.2,0-2.2-0.3-2.8-1c-0.7-0.7-1-1.7-1-2.9V9.1z"/>
			<path class="st0" d="M87.3,7.7c-0.5,0.8-0.2,2-0.2,2C86.8,9.4,86,9,85.1,9c-0.7,0-1.5,0.3-2,0.9c-0.5,0.6-0.8,1.3-0.8,2.2v7h-2.9
				V6.9h2.9V8c0.8-0.9,1.8-1.4,3.1-1.4c0.8,0,1.4,0.1,2.3,0.4C87.8,7,87.6,7.2,87.3,7.7"/>
			<path class="st0" d="M94.6,14.5c0,1.7-0.9,2.6-2.6,2.6c-1.3,0-1.9-0.5-1.9-1.6c0-1.5,1.1-2.2,3.4-2.2c0.2,0,0.6,0,1.1,0.1V14.5z
				 M97.4,15.3v-2.6c0-2.4-0.4-4-1.3-4.8s-1.8-1.3-3.6-1.3c-1.3,0-2.1,0.2-2.1,0.2c-2.1,0.6-1.2,2.7-1.2,2.7l0,0l0,0l0,0
				c0,0,0,0,0.1,0l0.4-0.2C90.2,9.1,91,9,91.8,9c1.8,0,2.7,0.7,2.7,2.2C94.1,11,93.7,11,93.4,11c-2,0-3.5,0.4-4.5,1.2
				c-1.1,0.8-1.6,1.9-1.6,3.3c0,1.2,0.4,2.1,1.1,2.8c0.8,0.7,1.8,1,3.1,1c0.7,0,1.4-0.1,2-0.4s1.1-0.6,1.4-1c0.1,0.4,0.3,0.7,0.7,1
				c0.3,0.3,0.7,0.4,1.1,0.5c0.4,0,0.7,0,1-0.1s0.6-0.3,0.8-0.8C97.8,18,97.4,17,97.4,15.3"/>
		</g>
	</g>
</g>
<g>
	<path class="st1" d="M101.1,0.7h-3l-0.3,1.9c0.2,0,0.3,0,0.7,0c0.7,0,1.2,0.2,1.7,0.5c0.7,0.3,1.2,1,1.2,1.9c0,1.4-1.2,2.6-3,2.6
		c-0.8,0-1.5-0.2-2-0.5l0.3-0.8c0.3,0.2,1,0.5,1.7,0.5c1,0,1.8-0.6,1.8-1.6s-0.7-1.6-2.3-1.6c-0.5,0-0.8,0-1.2,0.2L97.1,0h3.8v0.6
		H101.1z"/>
</g>
</svg>
