<?xml version="1.0" encoding="utf-8"?>
<!-- Generator: Adobe Illustrator 22.0.1, SVG Export Plug-In . SVG Version: 6.00 Build 0)  -->
<svg version="1.1" id="Capa_1" xmlns="http://www.w3.org/2000/svg" xmlns:xlink="http://www.w3.org/1999/xlink" x="0px" y="0px"
	 viewBox="0 0 100 100" style="enable-background:new 0 0 100 100;" xml:space="preserve">
<style type="text/css">
	.st0{clip-path:url(#SVGID_2_);fill:#444444;}
</style>
<g>
	<defs>
		<rect id="SVGID_1_" y="0" width="100" height="100"/>
	</defs>
	<clipPath id="SVGID_2_">
		<use xlink:href="#SVGID_1_"  style="overflow:visible;"/>
	</clipPath>
	<path class="st0" d="M50,100C22.4,100,0,77.6,0,50C0,22.4,22.4,0,50,0s50,22.4,50,50C100,77.6,77.6,100,50,100 M50,6.8
		C26.2,6.8,6.8,26.2,6.8,50c0,23.8,19.4,43.2,43.2,43.2c23.8,0,43.2-19.4,43.2-43.2C93.2,26.2,73.8,6.8,50,6.8"/>
	<path class="st0" d="M50,100c-13.5,0-20.7-25.8-20.7-50S36.5,0,50,0c13.5,0,20.7,25.8,20.7,50S63.5,100,50,100 M50,6.8
		c-5.8,0-14,16.4-14,43.2s8.1,43.2,14,43.2c5.8,0,14-16.4,14-43.2S55.8,6.8,50,6.8"/>
	<rect x="6.2" y="62.2" class="st0" width="87.6" height="6.8"/>
	<rect x="6.2" y="31.1" class="st0" width="87.6" height="6.8"/>
</g>
</svg>
