<?xml version="1.0" encoding="utf-8"?>
<!-- Generator: Adobe Illustrator 22.0.1, SVG Export Plug-In . SVG Version: 6.00 Build 0)  -->
<svg version="1.1" id="Capa_1" xmlns="http://www.w3.org/2000/svg" xmlns:xlink="http://www.w3.org/1999/xlink" x="0px" y="0px"
	 viewBox="0 0 100 100" style="enable-background:new 0 0 100 100;" xml:space="preserve">
<style type="text/css">
	.st0{fill-rule:evenodd;clip-rule:evenodd;fill:#363636;}
</style>
<path class="st0" d="M65.1,17.1c3.1-0.1,6.2,0,9.3,0c0.4,0,0.8,0,1.3,0V1c-1.7-0.2-3.4-0.4-5.1-0.5c-3.2-0.1-6.3-0.3-9.5-0.2
	c-4.8,0.1-9.4,1.3-13.4,4.1c-4.6,3.3-7.1,7.9-8.1,13.4c-0.4,2.3-0.5,4.6-0.6,6.9c-0.1,3.6,0,7.2,0,10.8v1.4H23.6v18h15.3V100h18.7
	V55h15.2c0.8-6,1.5-11.9,2.3-18c-1.2,0-2.3,0-3.4,0c-4.3,0-14.3,0-14.3,0s0-8.9,0.1-12.8C57.7,18.9,60.9,17.3,65.1,17.1z"/>
</svg>
