<?xml version="1.0" encoding="utf-8"?>
<!-- Generator: Adobe Illustrator 22.0.1, SVG Export Plug-In . SVG Version: 6.00 Build 0)  -->
<svg version="1.1" id="Capa_1" xmlns="http://www.w3.org/2000/svg" xmlns:xlink="http://www.w3.org/1999/xlink" x="0px" y="0px"
	 viewBox="0 0 100 100" style="enable-background:new 0 0 100 100;" xml:space="preserve">
<style type="text/css">
	.st0{fill:#363636;}
</style>
<g>
	<path class="st0" d="M76.4,17.6c-3.3,0-6,2.7-6,6c0,3.3,2.7,6,6,6c3.3,0,6-2.7,6-6C82.4,20.2,79.7,17.6,76.4,17.6z"/>
	<path class="st0" d="M50.1,25.7c-13.1,0-23.7,10.6-23.7,23.7c0,13.1,10.6,23.7,23.7,23.7c13.1,0,23.7-10.6,23.7-23.7
		C73.8,36.3,63.2,25.7,50.1,25.7z M50.1,64.2c-8.2,0-14.8-6.6-14.8-14.8s6.6-14.8,14.8-14.8c8.2,0,14.8,6.6,14.8,14.8
		S58.2,64.2,50.1,64.2z"/>
	<path class="st0" d="M76.9-0.2H23.2C10.4-0.2,0,10.1,0,22.9v53.7c0,12.7,10.4,23.1,23.1,23.1h53.7c12.7,0,23.1-10.4,23.1-23.1V22.9
		C100,10.1,89.6-0.2,76.9-0.2z M23.2,90.1c-7.4,0-13.5-6.1-13.5-13.5V22.9c0-7.4,6.1-13.5,13.5-13.5h53.7c7.4,0,13.5,6.1,13.5,13.5
		v53.7c0,7.4-6.1,13.5-13.5,13.5H23.2z"/>
</g>
</svg>
