<?xml version="1.0" encoding="utf-8"?>
<!-- Generator: Adobe Illustrator 22.0.1, SVG Export Plug-In . SVG Version: 6.00 Build 0)  -->
<svg version="1.1" id="Capa_1" xmlns="http://www.w3.org/2000/svg" xmlns:xlink="http://www.w3.org/1999/xlink" x="0px" y="0px"
	 viewBox="0 0 214.5 83.5" style="enable-background:new 0 0 214.5 83.5;" xml:space="preserve">
<style type="text/css">
	.st0{clip-path:url(#SVGID_2_);fill:#353535;}
	.st1{clip-path:url(#SVGID_4_);fill:#353535;}
	.st2{clip-path:url(#SVGID_6_);fill:#353535;}
	.st3{clip-path:url(#SVGID_8_);fill:#353535;}
	.st4{clip-path:url(#SVGID_10_);fill:#353535;}
	.st5{clip-path:url(#SVGID_12_);fill:#353535;}
	.st6{clip-path:url(#SVGID_14_);fill:#353535;}
	.st7{clip-path:url(#SVGID_16_);fill:#353535;}
	.st8{fill:#353535;}
</style>
<g>
	<g>
		<defs>
			<rect id="SVGID_1_" x="1" y="1" width="198.5" height="82"/>
		</defs>
		<clipPath id="SVGID_2_">
			<use xlink:href="#SVGID_1_"  style="overflow:visible;"/>
		</clipPath>
		<path class="st0" d="M92.4,58.9c0,0,7.3-9.1,7.2-21.7C99.4,24.6,91.3,1,46.3,1C3.5,1,1,36,1,38.4s-3.5,35.1,47.4,35.1
			C68,73.5,71.8,71,71.8,71s14.6,13,21.5,11.9c0,0,2.9,0.1,0.9-7.9C92,66,92.4,58.9,92.4,58.9 M75.5,67.3c0,0-1.6-2.3-3.4-1.4
			C65.7,69.1,5.2,76.6,5.8,40c0.6-35.2,40-34.4,40-34.4C88.2,6.4,94.7,27,94.2,37.7S88,55.8,88,55.8s-1.1,1.1-1.3,3.3
			C86.4,65.6,89.3,78,89.3,78C81,74.2,75.5,67.3,75.5,67.3"/>
	</g>
	<g>
		<defs>
			<rect id="SVGID_3_" x="1" y="1" width="198.5" height="82"/>
		</defs>
		<clipPath id="SVGID_4_">
			<use xlink:href="#SVGID_3_"  style="overflow:visible;"/>
		</clipPath>
		<path class="st1" d="M63.8,33c0-1.4-0.1-2.8-0.2-4.2c-0.1-0.7-0.1-1.4-0.5-2c-0.8-1.2-2.8-1.4-3.8-0.3c-0.7,0.8-0.7,2-0.7,3.1
			c0,4.8,0.4,9.9-0.6,14.6c-0.2,0.7-0.5,1.4-0.7,2.2c-0.5,1.4-1.2,2.7-2,3.9c-1.4,1.9-2.9,3.4-4.5,4.6c-1.6,1.1-3.2,1.7-4.7,1.7
			c-0.5,0-1.1-0.1-1.6-0.3s-1-0.5-1.4-0.9c-1.1-1-1.9-2.8-2.5-5.3c-1.5-6.3,0.3-12.6,1.4-18.9c0.2-1.1,0.4-2.4-0.2-3.4
			c-0.4-0.7-1.2-1.1-2-1.1s-1.6,0.5-2,1.1c-0.3,0.5-0.4,1-0.5,1.6c-1.2,6.4-2.5,12.8-1.9,19.3c0.3,3.8,1.4,7.9,4.3,10.4
			c8.3,7.4,19.1-3,22.1-10.7c1.7-4.6,2.2-9.6,2.1-14.5C63.8,33.6,63.8,33.3,63.8,33"/>
	</g>
	<g>
		<defs>
			<rect id="SVGID_5_" x="1" y="1" width="198.5" height="82"/>
		</defs>
		<clipPath id="SVGID_6_">
			<use xlink:href="#SVGID_5_"  style="overflow:visible;"/>
		</clipPath>
		<path class="st2" d="M58.6,15.9c-0.7-0.7-1.5-1-2.5-1s-1.8,0.3-2.4,1c-0.6,0.7-0.9,1.5-1,2.5c0,1,0.3,1.8,1,2.5
			c0.6,0.7,1.4,1,2.4,1c0.9,0,1.7-0.3,2.4-1s1-1.5,1-2.4C59.6,17.4,59.3,16.6,58.6,15.9"/>
	</g>
	<g>
		<defs>
			<rect id="SVGID_7_" x="1" y="1" width="198.5" height="82"/>
		</defs>
		<clipPath id="SVGID_8_">
			<use xlink:href="#SVGID_7_"  style="overflow:visible;"/>
		</clipPath>
		<path class="st3" d="M46.9,16.4c-0.7-0.7-1.5-1-2.5-1s-1.8,0.3-2.4,1c-0.6,0.7-0.9,1.5-1,2.5c0,1,0.3,1.8,1,2.5
			c0.6,0.7,1.4,1,2.4,1c0.9,0,1.7-0.3,2.4-1s1-1.5,1-2.4C47.9,18,47.6,17.1,46.9,16.4"/>
	</g>
	<g>
		<defs>
			<rect id="SVGID_9_" x="1" y="1" width="198.5" height="82"/>
		</defs>
		<clipPath id="SVGID_10_">
			<use xlink:href="#SVGID_9_"  style="overflow:visible;"/>
		</clipPath>
		<path class="st4" d="M183,58.6c-0.1,0.5-0.2,1.1-0.5,1.6s-0.8,1-1.4,1.4c-1.2,0.7-3.4,0.8-3.7,0.8c-1.5,0-2.9-0.3-4.2-0.9
			c-1.3-0.6-3-2.6-3.1-3.3c-1.1,1.2-1.5,1.5-2.7,2.5c-1.3,1.1-2.8,2-4.6,2.8c-2.7,1.2-4.5,1.1-7.3,1.1c-1,0-2.4-0.4-3.1-0.6
			c-2.9-0.7-4.7-2.7-5.3-5.8c-0.2-0.8-0.3-1.8-0.2-2.8c0-1,0.1-2.1,0.3-3.1c0.3-2.1,0.8-4.2,1.5-6.3c0.7-2,1.3-3.6,1.8-4.7
			c0.5-0.8,1.1-1.5,1.8-1.9s1.4-0.6,2.1-0.6c0.7,0,1.4,0.2,1.9,0.7s0.7,1.1,0.6,1.9c0,0.2-0.1,0.4-0.1,0.6c0,0.1-0.1,0.3-0.2,0.6
			l0.1-0.1c-0.7,1.4-1.3,2.9-1.8,4.6c-0.5,1.7-0.9,3.3-1.1,4.8c-0.2,1.4-0.1,2.5-0.1,3.4c0.1,2.9,3.1,3.9,6.9,2.4
			c2.9-1.1,3.7-2.3,5.7-4.7c2-2.3,4.3-9.8,5.3-11.9c0.4-0.7,0.9-1.2,1.5-1.5s1.2-0.4,1.8-0.4h0.4c0.1,0,0.3,0,0.5,0.1l-0.1-0.1
			c0.6,0.1,1.2,0.5,1.6,0.9c0.4,0.5,0.6,1.1,0.5,1.8c0,0.1,0,0.2,0,0.3s-0.1,0.3-0.1,0.5v-0.1c-0.8,2.2-1.8,5.8-2,7.4
			c-0.1,0.7-0.1,1.4-0.1,2s0.1,1.1,0.2,1.5v-0.1c0.2,1.2,1.7,2.5,2.6,2c0.7-0.3,1.3-0.5,1.9-0.5c1.3,0,2.1,0.6,2.4,1.9
			C183,57.5,183.1,58,183,58.6"/>
	</g>
	<g>
		<defs>
			<rect id="SVGID_11_" x="1" y="1" width="198.5" height="82"/>
		</defs>
		<clipPath id="SVGID_12_">
			<use xlink:href="#SVGID_11_"  style="overflow:visible;"/>
		</clipPath>
		<path class="st5" d="M196.3,62.3c-0.5,0.7-1.3,1.1-2.5,1.3c-0.7,0.1-0.9,0.3-2,0.4c-1.9,0.1-3.5-0.3-4.5-1.2
			c-1.1-0.9-1.9-2.5-2.5-4.7c-0.1-0.5-0.2-1.1-0.3-1.9c0-0.7-0.1-1.4,0-2.2c0-0.5,0-1,0.1-1.4c0-0.4,0.1-0.8,0.1-1.1
			c0.1-1.1,0.3-2.2,0.6-3.3s0.5-2.1,0.9-3.1c-0.2-0.2-0.3-0.5-0.3-0.9c0-0.2,0-0.4,0.1-0.5c0-0.1,0.1-0.3,0.1-0.4
			c0.3-0.6,0.6-1.2,1.1-2c0.4-0.8,0.9-1.3,1.3-1.8c0.7-0.6,1.5-0.9,2.4-0.9c0.5,0,1,0,1.5,0.2c0.7,0.2,1.2,0.5,1.6,1
			c0.4,0.4,0.5,0.9,0.5,1.5c0,0.4-0.1,0.8-0.3,1.2c-0.6,1-1.1,2.4-1.7,4c-0.6,1.7-0.9,3.3-1.1,4.9v1.2c0,1.3,0,2.4,0.2,3.1
			c0.3,1,0.8,1.5,1.8,1.4c0.2,0-0.9,0.2,0.3-0.1h0.1c1.1-0.1,1.9,0.2,2.5,0.9c0.5,0.7,0.8,1.4,0.8,2.3v0.1
			C197,61,196.8,61.7,196.3,62.3"/>
	</g>
	<g>
		<defs>
			<rect id="SVGID_13_" x="1" y="1" width="198.5" height="82"/>
		</defs>
		<clipPath id="SVGID_14_">
			<use xlink:href="#SVGID_13_"  style="overflow:visible;"/>
		</clipPath>
		<path class="st6" d="M199.5,32.9c0,0.7-0.2,1.3-0.5,2s-0.8,1.2-1.4,1.7c-0.9,0.6-1.7,1-2.6,1c-0.5,0-1.1,0-1.6-0.2
			c-0.6-0.2-1.1-0.5-1.5-0.9c-0.8-0.9-1.2-1.9-1.1-3c0-0.6,0.2-1.2,0.5-1.9c0.3-0.6,0.8-1.2,1.5-1.8c0.7-0.6,1.6-0.9,2.6-0.9
			c0.9-0.1,1.7,0.2,2.5,0.6h0.1C199,30.3,199.5,31.5,199.5,32.9"/>
	</g>
	<g>
		<defs>
			<rect id="SVGID_15_" x="1" y="1" width="198.5" height="82"/>
		</defs>
		<clipPath id="SVGID_16_">
			<use xlink:href="#SVGID_15_"  style="overflow:visible;"/>
		</clipPath>
		<path class="st7" d="M132.3,24.8c-3.3,0-5.3,1.6-7,5.4c-0.6,1.6-1.8,4.5-3.4,8.7c-0.4,1-1.2,1.5-2.3,1.5c-1.1,0-2-0.5-2.7-1.3
			c-1.5,3.5-2.3,6.4-2.6,8.9c-0.2,2.1-0.2,9.7,5,11c0.6,0.2,3,0.9,5.5,0.4c4-1.2,6.6-3.7,9.7-8.7c2.6-4.2,3.9-7.8,4.4-12.4
			c0.2-2.4-0.1-5.9-0.9-8.5C136.8,26.3,134.6,24.8,132.3,24.8 M146.4,35.9c0,1.1,0,1.8-0.1,2.2c-0.5,5.6-2.5,10.9-5.9,16.1
			c-3.8,5.8-8.5,9.6-13.9,11.4c-1.4,0.5-3.7,0.5-5.2,0.5c-3.3,0-6.2-1.1-9.2-3.6c-2.8-2.3-4-4.8-4.8-7.6c-0.5-1.6-0.5-3.9-0.3-6.9
			c0.5-4.9,2.1-10.1,5-15.5c3-5.7,6.7-10.2,10.9-13.5c2.1,0,3.7,0.3,4.7,1.1c2.1-1.7,4.1-2.1,5.8-2.1c1.3,0,2.5,0.3,3.6,0.7
			C143.3,21.5,146.4,27.3,146.4,35.9"/>
	</g>
</g>
<g>
	<path class="st8" d="M206.9,20h-10.7v-3.5l10-16.1h4.1V17h3.5v3h-3.5v5.5h-3.4V20z M206.9,4.5L206.9,4.5L199.1,17h7.7V4.5z"/>
</g>
</svg>
