<?xml version="1.0" encoding="utf-8"?>
<!-- Generator: Adobe Illustrator 22.0.1, SVG Export Plug-In . SVG Version: 6.00 Build 0)  -->
<svg version="1.1" id="Capa_1" xmlns="http://www.w3.org/2000/svg" xmlns:xlink="http://www.w3.org/1999/xlink" x="0px" y="0px"
	 viewBox="0 0 203.2 23" style="enable-background:new 0 0 203.2 23;" xml:space="preserve">
<style type="text/css">
	.st0{fill:#353635;}
</style>
<g>
	<g>
		<g>
			<path class="st0" d="M120.5,10.8l-3,0.6c0,0,0.3,1.4-0.8,2.6c-1.3,1.4-2.6,1.3-3.7,0.7c-1-0.5-1.5-1.7-1.7-2.2
				c2.2-2.2,2-4.5,0.7-6.7c-1.3-2.2-3.8-2.6-3.8-2.6c-2,0.5-3.7,2-3.7,2l2,2.3c0,0,1-1,2.6-0.6c1.8,0.4,2.4,1.6,2.5,2.8
				c0,1.1-0.7,2.2-1,2.6c-3-0.9-4.9,0.5-6.1,2.7c-1.3,2.2-0.3,4.5-0.3,4.5c1.5,1.5,3.6,2.2,3.6,2.2l1-2.9c0,0-1.3-0.4-1.8-2
				c-0.6-1.8,0.2-2.9,1.2-3.6c0.9-0.6,2.2-0.5,2.7-0.4c0.8,3.1,2.9,4,5.4,4c2.6,0,4.1-2,4.1-2C120.9,13,120.5,10.8,120.5,10.8"/>
			<path class="st0" d="M115.1,11.8c0,0,1.5-0.1,2.5-1.3c1.4-1.8,0.9-3.2,0.5-3.8c-0.4-0.8-1.4-1.4-1.4-1.4l-0.2-0.7L116,3.2
				l-1.8,1.1l0.6,2.1C118.5,8.5,115.1,11.8,115.1,11.8"/>
			<path class="st0" d="M108.1,9.5c0,0-0.8-1.3-2.3-1.5c-2.3-0.3-3.2,0.8-3.6,1.5c-0.5,0.7-0.5,1.9-0.5,1.9l-0.5,0.5l-1,1.2l1.8,1
				l1.5-1.6C103.6,8.3,108.1,9.5,108.1,9.5"/>
			<path class="st0" d="M114.5,19.2c-3.7,2.1-4.9-2.5-4.9-2.5s-0.7,1.3-0.1,2.8c0.9,2.1,2.3,2.3,3.1,2.4c0.8,0,1.9-0.5,1.9-0.5
				l0.7,0.1l1.5,0.3l0-2.1L114.5,19.2z"/>
			<path class="st0" d="M138.5,4.4l2.9-1.4v14.9c0,1.5,0.5,2.5,1.4,2.7c-0.4,0.9-1.2,1.3-2.3,1.3c-1.3,0-2-0.9-2-2.7V4.4z"/>
			<path class="st0" d="M146.6,14.3h6.1c-0.2-1.8-1.2-2.7-3-2.7C148,11.5,147,12.4,146.6,14.3 M155.4,16.4h-8.9c0.1,1,0.4,1.8,1,2.3
				c0.6,0.6,1.5,0.8,2.5,0.8c0.4,0,0.5,0,1.1-0.1c0.5-0.1,1.1-0.4,1.8-0.2c0.4,0.1,0.6,0.5,0.8,0.8c0.2,0.3,0.4,0.7,0.4,0.7
				c-1,0.8-2.6,1.2-4.6,1.2c-1.9,0-3.4-0.6-4.5-1.7c-1.1-1.1-1.7-2.7-1.7-4.7c0-2,0.6-3.6,1.8-4.8c1.2-1.2,2.7-1.8,4.4-1.8
				c1.8,0,3.3,0.5,4.4,1.6c1.1,1.1,1.6,2.5,1.6,4.1C155.6,15.2,155.5,15.7,155.4,16.4"/>
			<path class="st0" d="M127.5,14.3h6.1c-0.2-1.8-1.2-2.7-3-2.7C128.9,11.5,127.9,12.4,127.5,14.3 M136.3,16.4h-8.9
				c0.1,1,0.4,1.8,1,2.3c0.6,0.6,1.5,0.8,2.5,0.8c0.4,0,0.5,0,1.1-0.1c0.5-0.1,1.1-0.4,1.8-0.2c0.4,0.1,0.6,0.5,0.8,0.8
				c0.2,0.3,0.4,0.7,0.4,0.7c-1,0.8-2.6,1.2-4.6,1.2c-1.9,0-3.4-0.6-4.5-1.7c-1.1-1.1-1.7-2.7-1.7-4.7c0-2,0.6-3.6,1.8-4.8
				c1.2-1.2,2.7-1.8,4.4-1.8c1.8,0,3.3,0.5,4.4,1.6c1.1,1.1,1.6,2.5,1.6,4.1C136.5,15.2,136.4,15.7,136.3,16.4"/>
			<path class="st0" d="M166.2,21.8c0,0-0.6,0-1-0.5c-0.1-0.2-3.3-5.1-3.3-5.1l-1.4,1.5v4.2h-2.9V4.4l2.9-1.3v11.1l4.2-4.8h3.5
				l-4.2,4.7l5.1,7.7H166.2z"/>
			<path class="st0" d="M172,11.7h-3.5l2.1-2.3h1.4V6.8l2.9-1.1v3.6h3.4v2.3h-3.4v5.5c0,0.9,0.1,1.5,0.4,1.9
				c0.3,0.4,0.8,0.6,1.5,0.6c0.7,0,1.3-0.2,2-0.6v2.7c-0.7,0.2-1.6,0.3-2.9,0.3c-1.2,0-2.2-0.4-2.9-1.1c-0.7-0.7-1-1.7-1-3V11.7z"/>
			<path class="st0" d="M188.7,10.2c-0.5,0.8-0.2,2-0.2,2c-0.3-0.2-1.1-0.7-2-0.6c-0.7,0-1.5,0.3-2,1c-0.5,0.6-0.8,1.4-0.8,2.2v7.1
				h-2.9V9.4h2.9v1.1c0.8-0.9,1.8-1.4,3.2-1.4c0.8,0,1.5,0.1,2.3,0.4C189.2,9.5,189,9.7,188.7,10.2"/>
			<path class="st0" d="M196.1,17.1c0,1.7-0.9,2.6-2.6,2.6c-1.3,0-1.9-0.6-1.9-1.7c0-1.5,1.1-2.3,3.4-2.3c0.2,0,0.6,0.1,1.1,0.2
				V17.1z M199,18v-2.7c0-2.4-0.4-4.1-1.3-4.9c-0.9-0.9-1.8-1.3-3.7-1.3c-1.4,0-2.2,0.2-2.2,0.2c-2.1,0.6-1.2,2.7-1.2,2.7l0,0l0,0v0
				c0,0,0,0,0.1,0l0.4-0.2c0.6-0.2,1.4-0.3,2.3-0.3c1.9,0,2.8,0.7,2.8,2.2c-0.5-0.1-0.9-0.2-1.2-0.2c-2,0-3.5,0.4-4.6,1.2
				c-1.1,0.8-1.6,1.9-1.6,3.4c0,1.2,0.4,2.2,1.2,2.9c0.8,0.7,1.8,1,3.2,1c0.7,0,1.4-0.1,2.1-0.4c0.7-0.3,1.1-0.6,1.4-1.1
				c0.1,0.4,0.3,0.7,0.7,1c0.3,0.3,0.7,0.4,1.1,0.5c0.4,0,0.7,0,1-0.1c0.3-0.1,0.6-0.4,0.8-0.8C199.3,20.7,199,19.6,199,18"/>
		</g>
	</g>
	<g>
		<path class="st0" d="M11.6,22.2c-1,0.5-2.1,0.7-3.4,0.7c-1.2,0-2.3-0.2-3.3-0.6c-1-0.4-1.9-0.9-2.6-1.6c-0.7-0.7-1.3-1.6-1.7-2.5
			C0.2,17.1,0,16,0,14.8c0-1.2,0.2-2.3,0.6-3.3c0.4-1,1-1.8,1.8-2.5C3.1,8.3,4,7.8,5,7.4C6,7,7.1,6.8,8.3,6.8c1.1,0,2.1,0.2,3.2,0.6
			c1,0.4,1.9,0.9,2.5,1.7l-2.5,2.5c-0.3-0.5-0.8-0.8-1.4-1.1c-0.6-0.2-1.1-0.3-1.7-0.3c-0.6,0-1.2,0.1-1.8,0.4s-1,0.6-1.4,1
			c-0.4,0.4-0.7,0.9-0.9,1.5C4.1,13.5,4,14.2,4,14.8c0,0.7,0.1,1.3,0.3,1.9c0.2,0.6,0.5,1.1,0.9,1.5c0.4,0.4,0.8,0.7,1.4,1
			c0.5,0.2,1.1,0.3,1.7,0.3c0.7,0,1.4-0.1,1.9-0.4c0.5-0.3,1-0.7,1.3-1.1l2.6,2.4C13.4,21.1,12.6,21.7,11.6,22.2z"/>
		<path class="st0" d="M23.8,22.5l-3.3-6h-1.3v6h-3.6V7.2h5.8c0.7,0,1.4,0.1,2.1,0.2c0.7,0.2,1.3,0.4,1.9,0.8c0.6,0.4,1,0.8,1.3,1.4
			c0.3,0.6,0.5,1.3,0.5,2.2c0,1-0.3,1.9-0.8,2.6c-0.6,0.7-1.3,1.2-2.3,1.5l4,6.5H23.8z M23.7,11.9c0-0.4-0.1-0.6-0.2-0.9
			c-0.2-0.2-0.3-0.4-0.6-0.5c-0.2-0.1-0.5-0.2-0.8-0.2c-0.3,0-0.6-0.1-0.9-0.1h-2v3.5H21c0.3,0,0.6,0,0.9-0.1c0.3,0,0.6-0.1,0.9-0.3
			c0.3-0.1,0.5-0.3,0.6-0.6C23.6,12.6,23.7,12.3,23.7,11.9z"/>
		<path class="st0" d="M29.9,22.5V7.2h10.2v3.1h-6.7v2.9h6.3v2.9h-6.3v3.2h7.1v3.1H29.9z M36,6h-2.7L35.6,3h3.6L36,6z"/>
		<path class="st0" d="M57.2,14.8c0,1.3-0.2,2.5-0.7,3.4s-1.1,1.8-2,2.4c-0.8,0.6-1.7,1.1-2.7,1.4c-1,0.3-2,0.4-3.1,0.4H43V7.2h5.5
			c1.1,0,2.1,0.1,3.2,0.4c1,0.3,2,0.7,2.8,1.2c0.8,0.6,1.5,1.4,2,2.3C56.9,12.2,57.2,13.4,57.2,14.8z M53.3,14.8
			c0-0.9-0.1-1.6-0.4-2.1c-0.3-0.6-0.7-1-1.1-1.4c-0.5-0.3-1-0.6-1.6-0.7c-0.6-0.1-1.2-0.2-1.8-0.2h-1.8v8.9h1.7
			c0.7,0,1.3-0.1,1.9-0.2c0.6-0.2,1.1-0.4,1.6-0.7c0.5-0.3,0.8-0.8,1.1-1.4C53.2,16.4,53.3,15.7,53.3,14.8z"/>
		<path class="st0" d="M59.6,22.5V7.2h3.7v15.2H59.6z"/>
		<path class="st0" d="M72.9,10.4v12.1h-3.7V10.4H65V7.2h12.3v3.1H72.9z"/>
		<path class="st0" d="M94.1,14.8c0,1.2-0.2,2.3-0.6,3.3c-0.4,1-1,1.8-1.7,2.6c-0.7,0.7-1.6,1.3-2.6,1.6c-1,0.4-2.1,0.6-3.3,0.6
			c-1.2,0-2.3-0.2-3.3-0.6c-1-0.4-1.9-0.9-2.6-1.6c-0.7-0.7-1.3-1.6-1.7-2.6c-0.4-1-0.6-2.1-0.6-3.3c0-1.2,0.2-2.3,0.6-3.3
			c0.4-1,1-1.8,1.7-2.5c0.7-0.7,1.6-1.2,2.6-1.6c1-0.4,2.1-0.6,3.3-0.6c1.2,0,2.3,0.2,3.3,0.6c1,0.4,1.9,0.9,2.6,1.6
			c0.7,0.7,1.3,1.5,1.7,2.5C93.9,12.5,94.1,13.6,94.1,14.8z M90.2,14.8c0-0.7-0.1-1.3-0.3-1.8c-0.2-0.6-0.5-1.1-0.9-1.5
			c-0.4-0.4-0.8-0.7-1.4-1c-0.5-0.2-1.1-0.4-1.8-0.4s-1.2,0.1-1.8,0.4c-0.5,0.2-1,0.6-1.4,1s-0.7,0.9-0.9,1.5
			c-0.2,0.6-0.3,1.2-0.3,1.8c0,0.7,0.1,1.3,0.3,1.9c0.2,0.6,0.5,1.1,0.9,1.5c0.4,0.4,0.8,0.7,1.4,1c0.5,0.2,1.1,0.4,1.8,0.4
			s1.2-0.1,1.8-0.4c0.5-0.2,1-0.6,1.4-1c0.4-0.4,0.7-0.9,0.9-1.5C90.1,16.1,90.2,15.5,90.2,14.8z"/>
	</g>
</g>
<g>
	<path class="st0" d="M201.7,1.8h-3.4l0,2.1c0.1,0,0.1,0,0.2-0.1c0.1,0,0.2,0,0.3-0.1c0.1,0,0.2,0,0.3,0c0.1,0,0.2,0,0.3,0
		c0.4,0,0.8,0.1,1.1,0.2c0.3,0.1,0.6,0.3,0.8,0.6c0.2,0.2,0.4,0.5,0.5,0.9c0.1,0.3,0.2,0.7,0.2,1.1c0,0.4-0.1,0.8-0.2,1.2
		c-0.2,0.3-0.4,0.6-0.6,0.9c-0.3,0.2-0.6,0.4-0.9,0.6c-0.4,0.1-0.7,0.2-1.2,0.2c-0.6,0-1.1-0.1-1.6-0.4c-0.5-0.3-0.8-0.7-1-1.3
		l1.2-0.4c0.2,0.4,0.4,0.7,0.6,0.8c0.3,0.2,0.6,0.3,1,0.3c0.2,0,0.4,0,0.6-0.1s0.4-0.2,0.5-0.3c0.1-0.1,0.3-0.3,0.4-0.5
		c0.1-0.2,0.1-0.5,0.1-0.7c0-0.6-0.2-1.1-0.6-1.4c-0.4-0.3-0.9-0.5-1.5-0.5c-0.2,0-0.5,0-0.8,0.1c-0.3,0.1-0.6,0.2-0.9,0.3l0.1-4.5
		h4.6V1.8z"/>
</g>
</svg>
