<?xml version="1.0" encoding="utf-8"?>
<!-- Generator: Adobe Illustrator 22.0.1, SVG Export Plug-In . SVG Version: 6.00 Build 0)  -->
<svg version="1.1" id="Capa_1" xmlns="http://www.w3.org/2000/svg" xmlns:xlink="http://www.w3.org/1999/xlink" x="0px" y="0px"
	 viewBox="0 0 100 100" style="enable-background:new 0 0 100 100;" xml:space="preserve">
<style type="text/css">
	.st0{fill:#363636;}
</style>
<path class="st0" d="M97.6,72.9L97.6,72.9c-9.3-2.2-16.2-8.4-19.7-16.9c-1.6-3.8,0.3-3.8,2.7-4.9c1.2-0.5,2.4-0.9,3.6-1.4
	c1.6-0.6,3.2-1.2,4.5-2.4c0.8-0.7,1.5-1.7,1.5-2.9c0-1.6-1.1-3.9-2.5-4.6c-1.8-0.9-5-0.3-7.7,0.3c-2.1,0.5-2.7,0.8-2.4-2.1
	c0.6-5,0.6-8.9,0-13.9c-0.9-7.7-5.1-13.4-11.5-17.2c-5.1-3-10.6-4.2-15.8-4.2c-0.1,0-0.1,0-0.2,0c-0.1,0-0.1,0-0.2,0
	c-5.2,0-10.7,1.2-15.8,4.2c-6.4,3.8-10.6,9.5-11.5,17.2c-0.6,5-0.5,8.9,0,13.9c0.3,2.9-0.3,2.6-2.4,2.1c-2.7-0.6-5.9-1.3-7.7-0.3
	c-1.4,0.8-2.5,3-2.5,4.6c0,1.1,0.7,2.1,1.5,2.9c1.3,1.1,2.9,1.7,4.5,2.4c1.2,0.5,2.5,0.9,3.6,1.4c2.4,1.1,4.3,1.1,2.7,4.9
	C19,64.6,12.1,70.8,2.7,72.9l0,0C-1.8,74.8,1.4,78,1.4,78c0.8,0.7,1.7,1.4,2.8,1.6c2.3,0.5,8.4,1.1,10.5,4.8
	c1.4,2.5,2.3,6.3,7.1,6.5c4.3,0,6.3-0.7,8.3-1.1c1.6-0.3,4.3,0.1,5.9,1.2c0.1,0,0.1,0.1,0.2,0.1c0.9,0.7,1.8,1.3,2.7,1.9
	c3.8,2.5,6.4,3.8,10.4,3.9v0c0,0,0,0,0,0c0.2,0,0.5,0,0.7,0v0c0,0,0,0,0,0c0,0,0,0,0,0v0c0.2,0,0.5,0,0.7,0c0,0,0,0,0,0v0
	c3.9-0.1,6.5-1.4,10.4-3.9c0.9-0.6,1.9-1.2,2.7-1.9c0.1-0.1,0.1-0.1,0.2-0.1c1.6-1.1,4.3-1.5,5.9-1.2c2,0.4,4,1.1,8.3,1.1
	c4.8-0.3,5.7-4.1,7.1-6.5c2.1-3.7,8.2-4.3,10.5-4.8c1.1-0.2,2-0.9,2.8-1.6C98.9,78,102.1,74.8,97.6,72.9z"/>
</svg>
