<?xml version="1.0" encoding="utf-8"?>
<!-- Generator: Adobe Illustrator 22.0.1, SVG Export Plug-In . SVG Version: 6.00 Build 0)  -->
<svg version="1.1" id="Capa_1" xmlns="http://www.w3.org/2000/svg" xmlns:xlink="http://www.w3.org/1999/xlink" x="0px" y="0px"
	 viewBox="0 0 100 100" style="enable-background:new 0 0 100 100;" xml:space="preserve">
<style type="text/css">
	.st0{clip-path:url(#SVGID_2_);fill:#444444;}
</style>
<g>
	<defs>
		<rect id="SVGID_1_" y="0" width="100" height="100"/>
	</defs>
	<clipPath id="SVGID_2_">
		<use xlink:href="#SVGID_1_"  style="overflow:visible;"/>
	</clipPath>
	<path class="st0" d="M6.7,6.2L6.7,6.2C-7.1,20,1.1,50.8,25.2,74.8c24,24,54.8,32.3,68.7,18.4c4.2-4.2,6.1-13.7,6.1-13.7
		c0.3-1.6-0.6-3.3-2-3.9L72.7,65.6c-1.4-0.6-3.6-0.1-4.7,1.1l-7.3,7.3c-1.4,1.4-3.4,1.7-5,1c-0.1-0.1-0.2-0.1-0.4-0.2
		c-0.1,0-0.1-0.1-0.2-0.1c-5.5-3-11.4-7.4-16.9-12.9c-5.5-5.5-9.9-11.4-12.9-16.9c0-0.1-0.1-0.1-0.1-0.1c-0.1-0.1-0.1-0.3-0.2-0.4
		c-0.7-1.6-0.4-3.6,1-5l7.3-7.3c1.2-1.2,1.6-3.3,1.1-4.7L24.4,2.1c-0.6-1.4-2.3-2.3-3.9-2C20.5,0.1,10.9,2,6.7,6.2"/>
</g>
</svg>
