<?xml version="1.0" encoding="utf-8"?>
<!-- Generator: Adobe Illustrator 22.0.1, SVG Export Plug-In . SVG Version: 6.00 Build 0)  -->
<svg version="1.1" id="Capa_1" xmlns="http://www.w3.org/2000/svg" xmlns:xlink="http://www.w3.org/1999/xlink" x="0px" y="0px"
	 viewBox="0 0 100 100" style="enable-background:new 0 0 100 100;" xml:space="preserve">
<style type="text/css">
	.st0{fill-rule:evenodd;clip-rule:evenodd;fill:#363636;}
</style>
<path class="st0" d="M30.5,72.5c-10.7-0.4-17.3-8-19.1-14.2c3,0.6,5.9,0.5,8.8-0.3c0.1,0,0.2-0.1,0.3-0.1
	c-5.8-1.3-10.2-4.4-13.3-9.4c-2-3.3-3-6.9-3-10.9c2.9,1.5,5.9,2.4,9.1,2.5C9,36.9,6,32.8,4.9,27.6c-1.2-5.2-0.4-10.2,2.2-14.8
	C18.2,25.8,32.2,33,49.3,34.1c-0.1-0.8-0.2-1.5-0.3-2.2c-0.6-4.8,0.4-9.3,3-13.4c3.3-5.1,7.9-8.3,13.9-9.3
	c6.9-1.1,12.9,0.8,17.9,5.7c0.3,0.3,0.6,0.4,1.1,0.3c4.2-0.9,8.2-2.4,11.9-4.6c0.1-0.1,0.2-0.1,0.3-0.1c0,0,0.1,0,0.1,0
	c-1.6,4.8-4.6,8.4-8.8,11.2c4-0.4,7.8-1.5,11.4-3.1c0,0,0.1,0.1,0.1,0.1c-0.8,1-1.5,2.1-2.4,3.1c-2.2,2.7-4.7,5-7.5,7.1
	c-0.2,0.2-0.3,0.3-0.3,0.6c0.1,3,0,6.1-0.4,9.1c-0.8,6.4-2.6,12.4-5.3,18.3c-2.8,6-6.5,11.4-11.1,16.2c-7.8,8.1-17.2,13.3-28.2,15.7
	c-3.8,0.8-7.6,1.2-11.4,1.4c-11.8,0.3-22.7-2.6-32.8-8.8c-0.1-0.1-0.3-0.2-0.5-0.3c7.2,0.8,14-0.1,20.5-2.8
	C24.2,76.7,27.4,74.8,30.5,72.5z"/>
</svg>
