<?xml version="1.0" encoding="utf-8"?>
<!-- Generator: Adobe Illustrator 22.0.1, SVG Export Plug-In . SVG Version: 6.00 Build 0)  -->
<svg version="1.1" id="Capa_1" xmlns="http://www.w3.org/2000/svg" xmlns:xlink="http://www.w3.org/1999/xlink" x="0px" y="0px"
	 viewBox="0 0 100 100" style="enable-background:new 0 0 100 100;" xml:space="preserve">
<style type="text/css">
	.st0{clip-path:url(#SVGID_2_);fill-rule:evenodd;clip-rule:evenodd;fill:#363636;}
</style>
<g>
	<defs>
		<rect id="SVGID_1_" x="0.5" y="0.5" width="99" height="99.5"/>
	</defs>
	<clipPath id="SVGID_2_">
		<use xlink:href="#SVGID_1_"  style="overflow:visible;"/>
	</clipPath>
	<path class="st0" d="M0.5,100c0.6-2.2,1-4,1.5-5.9c1.6-6,3.3-11.9,4.9-17.9c0.2-0.9,0.1-2.1-0.3-2.9C-8.6,44.4,7.1,9.3,39,1.9
		c28.9-6.8,54.9,12.7,59.7,38.9c4.9,27.2-12.9,53.1-39.9,57.8c-10.7,1.9-21,0.3-30.8-4.5c-0.9-0.4-2.1-0.5-3-0.3
		C11.8,97,3.1,99.5,0.5,100 M12,88.7c4.9-1.3,9.5-2.4,13.9-3.7c1.3-0.4,2.2-0.2,3.4,0.5c8.5,4.9,17.6,6.7,27.3,5.2
		C79,87,94.4,66.1,90.9,43.8C87.4,20.6,65.7,5.1,42.8,9.3C15,14.4,0.3,45.3,14.1,69.8c1.5,2.7,1.9,4.9,0.9,7.8
		C13.8,81.1,13.1,84.7,12,88.7"/>
	<path class="st0" d="M63,73.5c-9.6-0.4-25-8-35.5-26.2c-3.7-6.5-3.2-13.9,2.3-19c1.8-1.7,4.2-1.3,6.3-0.9c0.5,0.1,1.1,0.9,1.4,1.5
		c1.4,3.2,2.8,6.4,4,9.6c0.6,1.7-0.5,3.4-3,6.2c-0.8,0.9-1,1.8-0.3,2.8c4,6.9,9.7,11.8,17.1,14.7c1.1,0.4,1.9,0.2,2.6-0.7
		c3.9-4.8,4.3-6.2,6.4-5.2c10,4.8,10.8,5,10.8,6.1C75.4,70.8,67.7,73.9,63,73.5"/>
</g>
</svg>
